<svg width="12" height="12" viewBox="0 0 12 12" fill="none" xmlns="http://www.w3.org/2000/svg">
<path d="M2 3.5C2 2.67157 2.67157 2 3.5 2V2C4.32843 2 5 2.67157 5 3.5V5H3.5C2.67157 5 2 4.32843 2 3.5V3.5Z" stroke="white" stroke-width="0.8" stroke-linejoin="round"/>
<path d="M2 8.5C2 9.32843 2.67157 10 3.5 10V10C4.32843 10 5 9.32843 5 8.5V7H3.5C2.67157 7 2 7.67157 2 8.5V8.5Z" stroke="white" stroke-width="0.8" stroke-linejoin="round"/>
<path d="M10 3.5C10 2.67157 9.32843 2 8.5 2V2C7.67157 2 7 2.67157 7 3.5V5H8.5C9.32843 5 10 4.32843 10 3.5V3.5Z" stroke="white" stroke-width="0.8" stroke-linejoin="round"/>
<path d="M10 8.5C10 9.32843 9.32843 10 8.5 10V10C7.67157 10 7 9.32843 7 8.5V7H8.5C9.32843 7 10 7.67157 10 8.5V8.5Z" stroke="white" stroke-width="0.8" stroke-linejoin="round"/>
</svg>
