<svg width="18" height="18" viewBox="0 0 18 18" fill="none" xmlns="http://www.w3.org/2000/svg">
<rect width="18" height="18" rx="2" fill="#2EB7A0"/>
<path d="M14 9C13.2777 10.4982 10.8409 12 9 12C7.15905 12 4.83333 10.5 4 9C4.83333 7.5 7.15905 6 9 6C10.8409 6 13.2777 7.49821 14 9Z" fill="#2EB7A0"/>
<path d="M11 3L9 9L15 7" stroke="white" stroke-width="1.5" stroke-linecap="round" stroke-linejoin="round"/>
<path d="M11 3C13.5 3.5 14.5 5 15 7" stroke="white" stroke-width="1.5" stroke-linecap="round"/>
<path d="M14.5 10C14.5 12.5 12.3137 15 9 15C5.68629 15 3 12.3137 3 9C3 5.68629 5.5 3.5 8 3.5" stroke="white" stroke-width="1.5" stroke-linecap="round"/>
</svg>
